<svg width="63" height="60" viewBox="0 0 63 60" fill="none" xmlns="http://www.w3.org/2000/svg">
<g clip-path="url(#clip0_4_87)">
<path d="M0.45283 9.26198C0.45283 7.72556 0.45283 6.19035 0.45283 4.65635C0.45283 0.971124 3.06143 -0.844308 6.60927 0.380478C14.7102 3.18516 22.8075 5.9983 30.9011 8.81989C39.0828 11.6656 47.2632 14.515 55.4425 17.368C60.0286 18.9661 62.45 22.3034 62.4684 27.083C62.4684 29.3876 62.4684 31.6922 62.4684 33.9969C62.4684 37.4429 59.9846 39.2149 56.6789 38.0843C47.8344 35.0598 38.9972 32.0159 30.1673 28.9528C21.9343 26.1118 13.7037 23.2649 5.47557 20.4119C1.80666 19.1436 0.452827 17.3028 0.449158 13.4618L0.45283 9.26198Z" fill="#FE914D"/>
<path d="M0.456448 50.6003C0.456448 48.9769 0.434435 47.339 0.456448 45.7265C0.500475 43.1429 1.60481 41.1209 4.07766 40.1715C9.09306 38.2474 14.1708 36.4718 19.3293 34.9571C20.9767 34.5092 22.7252 34.5852 24.3264 35.1745C31.8207 37.7618 39.3126 40.3539 46.8021 42.9508C47.4955 43.19 48.0752 43.5596 48.0459 44.364C48.0165 45.1685 47.4111 45.3823 46.7801 45.6033C33.2198 50.3068 19.6607 55.0103 6.1029 59.7137C3.12742 60.7428 0.526157 58.8875 0.456448 55.7459C0.423428 54.0319 0.456448 52.3143 0.456448 50.6003Z" fill="#FE914D"/>
</g>
<defs>
<clipPath id="clip0_4_87">
<rect width="62.0339" height="60" fill="white" transform="translate(0.441772)"/>
</clipPath>
</defs>
</svg>
