<svg width="121" height="19" viewBox="0 0 121 19" fill="none" xmlns="http://www.w3.org/2000/svg">
<path d="M44.579 7.07336C44.579 5.14769 44.6628 3.22201 44.5371 1.33913C44.4952 0.26931 44.8723 -0.0730326 45.8359 0.012553C46.6739 0.0553458 47.5118 -0.0302398 48.3498 0.012553C51.534 0.226517 53.2937 1.98102 53.3775 5.14769C53.4612 8.0576 51.7434 10.2828 48.7268 10.4968C47.2185 10.5824 47.0509 11.2243 47.1766 12.4225C47.2185 12.8076 47.1347 13.1927 47.1766 13.5351C47.3442 14.6905 46.5901 14.5193 45.9197 14.5193C45.2493 14.4765 44.4533 14.8617 44.4952 13.5351C44.6628 11.3526 44.579 9.213 44.579 7.07336ZM47.2185 5.40444C47.2185 6.08913 47.2604 6.77381 47.2185 7.4585C47.1766 8.0576 47.4699 8.14318 47.9727 8.18598C49.2715 8.22877 50.4027 7.28733 50.6122 5.96075C50.9055 4.29183 50.2351 3.00805 48.9363 2.62291C47.5537 2.23778 47.2185 2.45174 47.2185 3.94949C47.2185 4.463 47.2185 4.93372 47.2185 5.40444Z" fill="#090909"/>
<path d="M0 7.24455C0 5.23329 0.0418975 3.17924 0 1.16797C0 0.354912 0.209488 0.0553622 1.04744 0.098155C2.93283 0.183741 4.81821 0.183741 6.7036 0.0553622C7.96053 -0.0302233 7.70914 0.78284 7.66724 1.46752C7.62535 2.15221 7.91863 3.05086 6.61981 2.7941C5.86565 2.66572 5.0696 2.7941 4.27355 2.70852C3.10042 2.58014 2.63954 2.96527 2.68144 4.29185C2.72334 5.27608 2.97472 5.61842 3.93837 5.49005C4.35734 5.44725 4.77632 5.53284 5.19529 5.44725C6.91309 5.10491 6.7036 6.26032 6.7036 7.33014C6.7036 7.92924 6.41032 8.05761 5.94945 8.01482C5.57237 7.97203 5.23719 8.01482 4.86011 8.01482C2.76524 8.01482 2.84903 8.01482 2.72334 10.0689C2.63954 11.481 3.01662 12.1229 4.48303 11.8662C5.15339 11.7806 5.82375 11.8234 6.49411 11.8662C7.12258 11.909 8.08622 11.3955 8.00242 12.8504C7.91863 14.0058 7.70914 14.5621 6.45222 14.4337C4.65062 14.3054 2.80713 14.3482 0.963643 14.4337C0.209488 14.4765 0 14.2198 0 13.4923C0.0418975 11.3955 0 9.29861 0 7.24455Z" fill="#090909"/>
<path d="M11.3961 6.26033C10.8096 3.86393 10.8934 3.69276 13.0301 3.26483C13.9938 3.05087 14.9574 2.92249 15.9629 3.09366C18.4349 3.4788 19.5242 4.677 19.6918 7.20177C19.8175 8.7851 19.2729 10.5396 19.9432 11.9518C20.6136 13.3211 19.7756 13.6635 19.1472 14.3054C19.0215 14.4338 18.6863 14.6049 18.6444 14.5621C17.597 13.3639 16.5495 14.5193 15.544 14.5621C14.5803 14.6049 13.6586 14.5621 12.7787 14.3054C11.3542 13.8774 10.4325 12.8932 10.3487 11.3527C10.2649 9.89772 11.019 8.95628 12.1922 8.31438C13.4072 7.6297 14.7479 7.41573 16.0886 7.41573C16.4238 7.41573 16.8847 7.6297 17.0523 7.20177C17.2199 6.77384 16.9266 6.38871 16.6752 6.04637C16.1724 5.40447 15.3764 5.40447 14.6641 5.36168C13.5329 5.36168 12.4436 5.74682 11.3961 6.26033ZM16.0886 9.34141C14.1614 9.34141 12.9882 10.0261 13.072 11.0531C13.1977 12.4225 14.287 12.2941 15.2088 12.3369C16.34 12.3369 17.3456 12.2085 17.2199 10.4968C17.0942 9.51258 16.9266 9.12745 16.0886 9.34141Z" fill="#090909"/>
<path d="M59.4525 3.00803C62.93 2.96524 64.3964 4.46299 64.6059 7.62965C64.6897 9.38416 64.1032 11.2242 65.2344 12.8932C65.5277 13.3211 63.5166 14.776 63.1395 14.3481C62.553 13.6634 62.0502 14.0914 61.5055 14.2625C60.081 14.7761 58.6146 14.6905 57.232 14.1342C55.9751 13.6634 55.3047 12.722 55.179 11.3954C55.0533 10.0688 55.6818 9.1274 56.7292 8.48551C57.9861 7.67245 59.4106 7.41569 60.919 7.3729C61.2541 7.3729 61.8407 7.67245 61.9664 7.07335C62.0921 6.51704 61.7569 6.00353 61.296 5.74677C60.1648 5.06209 58.9917 5.49001 57.8185 5.5756C57.2739 5.61839 56.6454 7.03055 56.1426 5.61839C55.6818 4.3774 56.1845 3.60713 57.4834 3.39317C58.1956 3.26479 58.9917 3.09362 59.4525 3.00803ZM61.3798 9.21299C59.662 9.46974 58.1118 9.29857 57.9442 10.9675C57.7766 12.3369 59.0755 12.2941 59.9553 12.2941C61.0447 12.2941 62.2178 12.2941 62.0083 10.5396C61.9245 9.7265 61.9664 9.04182 61.3798 9.21299Z" fill="#090909"/>
<path d="M88.9484 8.69949C88.9484 12.2085 86.6859 14.5621 83.3341 14.5621C80.0242 14.5621 77.8455 12.3797 77.8036 8.99904C77.7617 5.44724 80.1499 2.96526 83.5017 3.00805C86.8116 3.05084 88.9484 5.31886 88.9484 8.69949ZM86.3088 8.87066C86.3088 6.8594 85.1357 5.49003 83.376 5.44724C81.5744 5.40445 80.4013 6.73103 80.4013 8.74229C80.4013 10.7535 81.6582 12.1657 83.5017 12.1657C85.1357 12.1657 86.3088 10.8391 86.3088 8.87066Z" fill="#090909"/>
<path d="M100.303 8.91346C100.303 10.24 100.345 11.5666 100.261 12.8932C100.219 13.4067 100.722 14.2198 99.9675 14.3909C99.2552 14.5621 98.2078 14.8617 97.7888 14.2198C97.3698 13.5779 97.2441 13.9202 96.8671 14.0486C93.5572 15.4608 91.2947 14.0058 91.169 10.2828C91.0852 8.27156 91.169 6.21751 91.0852 4.20625C91.0433 3.47877 91.169 3.00805 91.9651 3.26481C92.5935 3.43598 93.7666 2.58012 93.7666 4.16346C93.7666 6.13192 93.7247 8.10039 93.8504 10.0689C93.9342 11.7806 94.9817 12.4225 96.5319 11.909C97.3279 11.6522 97.705 11.2243 97.705 10.2828C97.6631 8.27156 97.7469 6.21751 97.6631 4.20625C97.6212 2.92247 98.4173 3.26481 99.0876 3.22202C99.7999 3.17922 100.386 3.13643 100.345 4.24904C100.219 5.78958 100.303 7.37292 100.303 8.91346Z" fill="#090909"/>
<path d="M32.7219 3.35038C35.3615 3.05083 35.3615 3.09363 36.2832 5.44723C36.7441 6.64543 37.205 7.80083 37.7077 8.99903C37.7496 9.08462 37.8334 9.1702 37.9591 9.38417C38.6714 8.18597 38.9647 6.85939 39.4255 5.6184C40.3473 3.13642 40.3473 3.13642 43.1544 3.30759C41.1852 7.88642 39.6769 12.6364 37.1631 16.9157C35.7385 19.3549 35.6967 19.3549 32.9733 18.1995C33.099 17.6432 33.6437 17.472 33.9789 17.0869C36.2832 14.6477 36.6184 12.8504 35.3196 9.7693C34.4397 7.71525 33.6018 5.66119 32.7219 3.64993C32.68 3.56435 32.7219 3.43597 32.7219 3.35038Z" fill="#090909"/>
<path d="M66.8265 18.0711C67.455 17.472 68.1253 17.0441 68.6281 16.4022C70.1364 14.4337 71.0582 12.4653 69.5499 9.94048C68.3348 7.92922 67.6226 5.61841 66.6589 3.30759C67.1617 3.2648 67.5807 3.30759 67.9578 3.22201C69.2147 3.00804 69.8012 3.52156 70.1783 4.76255C70.6392 6.30309 71.3515 7.80084 72.0637 9.64093C72.6503 8.05759 73.1112 6.8166 73.572 5.53282C74.4938 3.00804 74.4938 3.00804 77.259 3.30759C75.3317 7.80084 73.8234 12.4653 71.3933 16.6589C69.8012 19.4405 69.8012 19.4405 66.8265 18.0711Z" fill="#090909"/>
<path d="M112.202 11.0103C113.71 12.0373 115.26 12.4653 116.894 12.3797C117.522 12.3369 118.235 12.2513 118.319 11.3954C118.444 10.4968 117.69 10.454 117.104 10.2828C116.056 9.98327 114.925 9.98327 113.919 9.46976C112.788 8.87066 112.118 8.0148 112.118 6.73102C112.076 5.40444 112.662 4.33462 113.836 3.73553C115.805 2.79408 117.732 2.83688 119.701 3.77832C120.958 4.37742 120.246 5.14769 119.994 5.87517C119.534 7.07336 119.157 5.87517 118.779 5.74679C117.816 5.40444 116.894 5.10489 115.888 5.31886C115.386 5.44724 114.841 5.57562 114.757 6.2603C114.673 6.98778 115.218 7.15895 115.721 7.33012C116.433 7.54408 117.145 7.62967 117.858 7.80084C119.911 8.22877 120.958 9.42697 120.916 11.2243C120.874 12.936 119.659 14.177 117.69 14.5193C116.685 14.6905 115.721 14.6477 114.715 14.5621C112.034 14.177 111.824 13.9202 112.202 11.0103Z" fill="#090909"/>
<path d="M31.8421 3.22198C29.9986 6.34586 28.3646 9.17018 26.563 12.1657C28.4065 12.1657 29.9986 12.1657 31.5907 12.1657C31.4231 14.5621 31.4231 14.5621 29.2863 14.5193C26.982 14.4765 24.7195 14.5193 22.1638 14.5193C23.9235 11.481 25.6412 8.57108 27.4847 5.44721C26.1859 5.44721 25.0128 5.36162 23.8816 5.49C23.1693 5.5328 22.876 5.40442 23.0436 4.67694C23.1693 4.12063 22.5827 3.22198 23.8397 3.26478C26.4373 3.26478 29.0349 3.22198 31.8421 3.22198Z" fill="#090909"/>
<path d="M110.484 11.5238C110.484 12.8504 111.07 14.2198 109.059 14.4765C106.587 14.8189 105.037 14.0914 104.618 12.1229C104.241 10.4112 104.409 8.61392 104.409 6.85941C104.409 6.13194 104.409 5.61842 103.445 5.66121C102.607 5.7468 102.775 5.01932 102.817 4.50581C102.858 4.03509 102.481 3.17923 103.235 3.22203C104.618 3.30761 104.451 2.45176 104.409 1.63869C104.367 0.697251 104.367 0.0553589 105.666 0.0553589C106.964 0.0553589 107.216 0.568872 107.048 1.63869C106.839 2.87968 107.341 3.3504 108.556 3.17923C109.353 3.05085 110.023 3.05085 109.981 4.33464C109.939 5.53284 109.562 5.87518 108.515 5.66121C107.216 5.40446 106.881 6.00356 107.006 7.24455C107.09 7.92923 107.006 8.61392 107.006 9.34139C107.006 12.1657 107.719 12.6792 110.484 11.5238Z" fill="#090909"/>
</svg>
