<svg width="36" height="26" viewBox="0 0 36 26" fill="none" xmlns="http://www.w3.org/2000/svg">
<path d="M3.08409 2.16667C3.08409 0.97005 4.05414 0 5.25075 0H31.2508C32.4474 0 33.4174 0.97005 33.4174 2.16667L3.08409 2.16667Z" fill="#FE914D"/>
<path d="M18.2508 19.5C20.644 19.5 22.5841 17.5599 22.5841 15.1667C22.5841 12.7734 20.644 10.8333 18.2508 10.8333C15.8575 10.8333 13.9174 12.7734 13.9174 15.1667C13.9174 17.5599 15.8575 19.5 18.2508 19.5Z" fill="#FE914D"/>
<path d="M0.917419 6.5C0.917419 5.30338 1.88747 4.33333 3.08409 4.33333H33.4174C34.614 4.33333 35.5841 5.30338 35.5841 6.5V23.8333C35.5841 25.03 34.614 26 33.4174 26H3.08409C1.88747 26 0.917419 25.03 0.917419 23.8333V6.5ZM7.41742 6.5C7.41742 8.89323 5.47732 10.8333 3.08409 10.8333V19.5C5.47732 19.5 7.41742 21.4401 7.41742 23.8333H29.0841C29.0841 21.4401 31.0242 19.5 33.4174 19.5V10.8333C31.0242 10.8333 29.0841 8.89323 29.0841 6.5H7.41742Z" fill="#FE914D"/>
</svg>
